Coordinates
version=1
nRows=6
nColumns=36
inDegrees=yes

Units are S.I. units (second, meters, Newtons, ...)
If the header above contains a line with 'inDegrees', this indicates whether rotational values are in degrees (yes) or radians (no).

endheader
time	pelvis_tilt	pelvis_list	pelvis_rotation	pelvis_tx	pelvis_ty	pelvis_tz	hip_flexion_r	hip_adduction_r	hip_rotation_r	knee_angle_r	knee_angle_r_beta	ankle_angle_r	subtalar_angle_r	mtp_angle_r	hip_flexion_l	hip_adduction_l	hip_rotation_l	knee_angle_l	knee_angle_l_beta	ankle_angle_l	subtalar_angle_l	mtp_angle_l	lumbar_extension	lumbar_bending	lumbar_rotation	arm_flex_r	arm_add_r	arm_rot_r	elbow_flex_r	pro_sup_r	arm_flex_l	arm_add_l	arm_rot_l	elbow_flex_l	pro_sup_l
      2.46666670	     -8.51578670	     -4.12367432	     13.33265141	      0.70582876	      0.92370916	     -0.02246341	      8.25592529	     -1.06421603	     -9.02681267	      3.30342790	      0.05765569	      5.97484428	     -7.49282062	     -7.49999987	     11.45731527	    -12.35692106	     -5.34175308	      3.91178393	      0.06827351	      1.35450069	      0.25498408	     -7.49999987	      6.36115573	      3.29701325	     -0.91140937	     36.64846380	     -0.30094299	     57.64642120	    130.04679463	     98.99260130	     33.55873269	      2.96692710	     65.43028749	    123.45103385	    107.22348736
      2.48333330	     -8.33769518	     -3.96098936	     13.37538201	      0.70949524	      0.92516394	     -0.02544696	      7.63408520	     -1.22201892	     -8.87992603	      2.89270613	      0.05048725	      5.91546503	     -7.50253330	     -7.49999987	     10.74670868	    -12.09334008	     -5.19532082	      3.35783442	      0.05860527	      1.21752748	      0.38067029	     -7.49999987	      6.44855871	      3.23804281	     -1.06529519	     36.15785352	     -0.32586591	     57.90881430	    130.30115496	     97.39678370	     33.34214782	      2.74276503	     65.83041968	    123.65331155	    105.79917055
      2.50000000	     -8.30949383	     -3.82330889	     13.42489442	      0.70495727	      0.92871978	     -0.02793591	      7.26753287	     -1.42345610	     -8.76637124	      2.59027718	      0.04520887	      5.82941609	     -7.55323156	     -7.49999987	     10.32344023	    -11.80047009	     -5.09119557	      2.90847638	      0.05076249	      1.15681981	      0.58107115	     -7.49999987	      6.46522497	      3.21239519	     -1.19087176	     35.83444729	     -0.55282747	     58.15781746	    130.02866431	     97.53905367	     33.18290845	      2.55570155	     66.33609613	    123.70510890	    105.93832826
      2.51666670	     -8.07392968	     -3.63511426	     13.38227053	      0.70537241	      0.92758408	     -0.02814187	      6.70966733	     -1.60013806	     -8.50725807	      2.29709111	      0.04009180	      5.63278108	     -7.84378664	     -7.49999987	      9.67019157	    -11.54193731	     -5.08272643	      2.50693166	      0.04375421	      1.20765567	      0.77802499	     -7.49999987	      6.14224801	      3.16695989	     -1.43431037	     35.99313370	     -0.21370443	     58.31300901	    129.70603235	     99.12883713	     33.65949284	      2.37871197	     66.76208719	    123.87961709	    107.05280433
      2.53333330	     -8.20394597	     -3.52604524	     13.34240221	      0.70377273	      0.92619041	     -0.03242214	      6.63928720	     -1.82535855	     -8.37069435	      2.15435132	      0.03760052	      5.61791982	     -7.80217185	     -7.49999987	      9.54964377	    -11.26249717	     -4.90390806	      2.27260496	      0.03966444	      1.32459060	      0.82671855	     -7.49999987	      6.32269663	      3.17429193	     -1.50086468	     36.27057557	     -0.06531208	     58.25912495	    129.79029548	     99.12691523	     34.01251808	      2.52180375	     66.69034939	    123.85277639	    107.04977909
      2.55000000	     -7.95101459	     -3.33089392	     13.32484160	      0.70374786	      0.92712346	     -0.03248566	      6.17517664	     -2.02751786	     -8.14155625	      1.97481569	      0.03446704	      5.45774353	     -8.08074477	     -7.49999987	      9.03141937	    -10.98765470	     -4.65757859	      2.00979834	      0.03507760	      1.18657530	      0.55529040	     -7.49999987	      5.86857551	      3.08082352	     -1.16827292	     36.93317918	      0.16098154	     58.19418293	    129.87487383	     98.41641123	     34.85992376	      2.91796500	     66.97130630	    123.35110417	    106.43454130
